<svg width="24" height="24" viewBox="0 0 24 24" fill="none" xmlns="http://www.w3.org/2000/svg">
<path d="M23 5H20.414L22.707 2.707C22.8892 2.5184 22.99 2.2658 22.9877 2.0036C22.9854 1.7414 22.8803 1.49059 22.6949 1.30518C22.5094 1.11977 22.2586 1.0146 21.9964 1.01233C21.7342 1.01005 21.4816 1.11084 21.293 1.293L19 3.586V1C19 0.734784 18.8947 0.48043 18.7071 0.292893C18.5196 0.105357 18.2653 0 18 0C17.7348 0 17.4805 0.105357 17.2929 0.292893C17.1054 0.48043 17 0.734784 17 1V5.456C16.1815 4.58461 15.2153 3.86486 14.146 3.33C13.4034 3.00206 12.5744 2.92372 11.7835 3.10672C10.9925 3.28972 10.2822 3.7242 9.75904 4.345L12.707 7.293C12.8892 7.4816 12.99 7.7342 12.9877 7.9964C12.9854 8.2586 12.8803 8.50941 12.6949 8.69482C12.5094 8.88023 12.2586 8.9854 11.9964 8.98767C11.7342 8.98995 11.4816 8.88916 11.293 8.707L8.52104 5.936C7.38404 7.605 5.86004 10.2 4.33404 12.92L6.70704 15.293C6.88919 15.4816 6.98999 15.7342 6.98771 15.9964C6.98543 16.2586 6.88026 16.5094 6.69485 16.6948C6.50945 16.8802 6.25863 16.9854 5.99644 16.9877C5.73424 16.99 5.48164 16.8892 5.29304 16.707L3.32204 14.736C2.21504 16.742 1.15604 18.712 0.300036 20.319C0.0570258 20.792 -0.0295739 21.3298 0.0527139 21.8552C0.135002 22.3805 0.381929 22.8661 0.757919 23.2421C1.13391 23.6181 1.61955 23.865 2.14487 23.9473C2.6702 24.0296 3.20808 23.943 3.68104 23.7C6.50604 22.2 10.443 20.067 13.736 18.15L11.293 15.707C11.1109 15.5184 11.0101 15.2658 11.0124 15.0036C11.0146 14.7414 11.1198 14.4906 11.3052 14.3052C11.4906 14.1198 11.7414 14.0146 12.0036 14.0123C12.2658 14.01 12.5184 14.1108 12.707 14.293L15.512 17.1C16.9659 16.2881 18.3417 15.3438 19.622 14.279C20.2546 13.7568 20.6994 13.0422 20.8888 12.2441C21.0781 11.4459 21.0016 10.6077 20.671 9.857C20.1357 8.78693 19.4156 7.81975 18.544 7H23C23.2653 7 23.5196 6.89464 23.7071 6.70711C23.8947 6.51957 24 6.26522 24 6C24 5.73478 23.8947 5.48043 23.7071 5.29289C23.5196 5.10536 23.2653 5 23 5Z" fill="white"/>
</svg>
