<svg width="24" height="24" viewBox="0 0 24 24" fill="none" xmlns="http://www.w3.org/2000/svg">
<path d="M21.9935 15.5757C21.9376 14.3884 21.5426 13.2432 20.8567 12.2792C20.1707 11.3153 19.2234 10.5742 18.1297 10.1461L17.8935 10.0527C17.8801 10.0454 16.2642 9.29036 12.9894 8.87216C12.1691 8.77841 11.4557 8.80003 10.4189 8.16733H10.417V8.1654C9.85591 7.80356 9.34278 7.37039 8.89014 6.87645C9.29692 6.34723 9.51809 5.69559 9.51869 5.02462C9.51869 4.98064 9.51869 4.9328 9.51451 4.87995L9.03092 4.90349L9.51451 4.87764C9.4771 4.10207 9.14705 3.37078 8.59263 2.83512C8.03822 2.29946 7.3019 2.00046 6.5361 2C6.48701 2 6.43983 2 6.39075 2.00308C5.62647 2.04121 4.9059 2.37582 4.37819 2.93769C3.85048 3.49956 3.55603 4.24564 3.55578 5.02153C3.55578 5.04044 3.55578 5.05704 3.55578 5.07518C3.09427 5.27823 2.70124 5.61343 2.42488 6.03969C2.14853 6.46594 2.00086 6.9647 2 7.47481C2 7.5211 2.00228 7.56316 2.00418 7.60135C2.03614 8.27436 2.32226 8.9091 2.80323 9.37402C3.2842 9.83894 3.92316 10.0984 4.58766 10.0986C4.62876 10.0986 4.66869 10.0986 4.70902 10.0963C5.06751 10.0778 5.41822 9.98347 5.73867 9.81951C6.05913 9.65554 6.34227 9.42552 6.56996 9.14415C7.11236 9.58092 7.59974 10.0837 8.02112 10.641V10.6433C8.79426 11.7278 8.80148 12.4751 8.94416 13.3285C9.22541 14.9809 9.69279 16.595 10.3371 18.1393C10.7838 19.278 11.5571 20.2546 12.5571 20.9429C13.557 21.6311 14.7376 21.9994 15.9462 22C16.0424 22 16.1406 21.9977 16.2361 21.9934C17.7884 21.919 19.2528 21.2418 20.3259 20.1021C21.3991 18.9624 21.9985 17.4477 22 15.872C22 15.7713 21.9962 15.6722 21.9935 15.5757ZM4.66794 9.11521C4.64397 9.11521 4.61732 9.11752 4.58954 9.11752C4.17346 9.11694 3.7735 8.95424 3.47239 8.66306C3.17128 8.37189 2.99206 7.97452 2.97176 7.55313C2.97176 7.52303 2.96946 7.49679 2.96946 7.47403C2.97052 7.19394 3.04241 6.91881 3.17823 6.67492C3.31405 6.43102 3.50927 6.22653 3.74526 6.08094C3.91252 5.97234 4.09755 5.89487 4.29164 5.85216C4.29164 5.85216 4.62533 5.79005 4.57891 5.49839H4.58081C4.55006 5.37531 4.53145 5.24943 4.52526 5.12262C4.52526 5.08404 4.52296 5.05086 4.52296 5.02153C4.52296 4.96444 4.53438 4.90927 4.53894 4.85371C4.57809 4.361 4.79274 3.89957 5.1428 3.55554C5.49287 3.21152 5.95443 3.00841 6.44135 2.98415C6.47673 2.98222 6.50795 2.98106 6.53763 2.98106C7.05524 2.98201 7.5527 3.18452 7.92728 3.54674C8.30185 3.90895 8.52491 4.40322 8.55037 4.92742C8.55037 4.95674 8.55037 4.98835 8.55037 5.02462C8.54911 5.53154 8.36117 6.01971 8.0234 6.39343L7.89405 6.51574C7.67169 6.72214 7.40698 6.87601 7.11899 6.96633V6.97175C6.96124 7.0225 6.79794 7.05333 6.63275 7.06356C6.60802 7.06356 6.58328 7.06355 6.55665 7.06587L6.4364 7.07244C6.17006 7.09443 6.20812 7.38338 6.20812 7.39225C6.20603 7.38508 6.20463 7.37771 6.20394 7.37026V7.39727L6.19937 7.53153C6.18864 7.69552 6.15404 7.85699 6.09665 8.01069C6.07725 8.06856 6.0586 8.12643 6.03235 8.18237C6.00459 8.25326 5.97124 8.32174 5.93265 8.38721C5.79295 8.60065 5.60567 8.77777 5.38597 8.90423C5.16626 9.0307 4.9203 9.10298 4.66794 9.11521ZM7.04479 8.26646C7.07771 8.17351 7.10529 8.07872 7.12737 7.98253L7.1384 7.97982C7.30029 7.9442 7.45899 7.89504 7.61287 7.83284C7.66271 7.81239 7.71141 7.79039 7.76049 7.76802C7.85907 7.72217 7.95498 7.67064 8.04776 7.61369C8.08999 7.58938 8.13527 7.57203 8.17446 7.54618C8.54158 7.93715 8.93835 8.29833 9.36117 8.6264L9.33379 8.65303C9.17779 8.79308 9.02634 8.93545 8.87985 9.08359C8.84599 9.1187 8.8129 9.15535 8.77904 9.19122C8.66147 9.31352 8.54541 9.43621 8.43393 9.5639C8.4286 9.56892 8.42404 9.57431 8.41986 9.57855C7.9996 9.10147 7.53912 8.66244 7.04365 8.26646H7.04479ZM17.7812 11.0615C18.6998 11.4206 19.4956 12.0426 20.072 12.8518C20.6483 13.661 20.9802 14.6227 21.0275 15.6197C21.0298 15.7038 21.0336 15.7875 21.0336 15.8709C21.0322 17.1935 20.5292 18.4649 19.6287 19.4219C18.7283 20.3788 17.4994 20.948 16.1965 21.0116C16.1128 21.0162 16.0299 21.0185 15.9496 21.0185C14.9317 21.0165 13.9378 20.7048 13.0966 20.1235C12.2555 19.5423 11.6058 18.7184 11.2316 17.7586C10.6164 16.2809 10.1696 14.7369 9.89993 13.1564C9.82432 12.1736 9.52294 11.2223 9.01988 10.3787C9.03777 10.3586 9.05374 10.337 9.07162 10.3154C9.23828 10.1225 9.4095 9.92962 9.5887 9.75139C9.59251 9.74753 9.59708 9.74367 9.60127 9.7402C9.77134 9.56736 9.95358 9.40457 10.137 9.2464C10.1632 9.22363 10.1906 9.2024 10.2172 9.17964C11.0459 9.59406 11.9532 9.82151 12.8768 9.8463C14.0668 9.98954 15.2437 10.2278 16.3967 10.5589C16.7806 10.6746 17.0659 10.7757 17.2527 10.8467C17.4396 10.9176 17.5118 10.9555 17.5137 10.9543L17.7801 11.0608L17.7812 11.0615Z" fill="black" stroke="black"/>
</svg>
