<svg width="28" height="28" viewBox="0 0 28 28" fill="none" xmlns="http://www.w3.org/2000/svg">
<g clip-path="url(#clip0_680_895)">
<path d="M14 0C6.28017 0 0 6.28017 0 14C0 21.7198 6.28017 28 14 28C21.7198 28 28 21.7198 28 14C28 6.28017 21.7198 0 14 0ZM16.9167 19.0517C16.7335 19.1578 16.5328 19.208 16.3345 19.208C15.9308 19.208 15.5388 18.9992 15.323 18.6247L12.9897 14.5833C12.887 14.406 12.8333 14.2053 12.8333 14V7C12.8333 6.356 13.3548 5.83333 14 5.83333C14.6452 5.83333 15.1667 6.356 15.1667 7V13.6873L17.3437 17.458C17.6657 18.0157 17.4743 18.7297 16.9167 19.0517Z" fill="white"/>
</g>
<defs>
<clipPath id="clip0_680_895">
<rect width="28" height="28" fill="white"/>
</clipPath>
</defs>
</svg>
