<svg width="19" height="21" viewBox="0 0 19 21" fill="none" xmlns="http://www.w3.org/2000/svg">
<path d="M18.207 0.973137C17.6658 0.46045 16.9826 0.131686 16.2512 0.0320195C15.5198 -0.0676465 14.7762 0.0666772 14.1225 0.416533C14.0273 0.377758 13.9269 0.353581 13.8248 0.344783H1.06399C0.89932 0.34469 0.736879 0.383693 0.589468 0.45872C0.442056 0.533746 0.313702 0.642745 0.214521 0.777128C0.11534 0.911511 0.0480417 1.0676 0.01793 1.23311C-0.0121817 1.39861 -0.00428363 1.569 0.0410006 1.73086L1.17033 5.78037H1.06399C0.89932 5.78027 0.736879 5.81928 0.589468 5.8943C0.442056 5.96933 0.313702 6.07833 0.214521 6.21271C0.11534 6.34709 0.0480417 6.50319 0.01793 6.66869C-0.0121817 6.8342 -0.00428363 7.00459 0.0410006 7.16644L1.17033 11.216H1.06399C0.89932 11.2159 0.736879 11.2549 0.589468 11.3299C0.442056 11.4049 0.313702 11.5139 0.214521 11.6483C0.11534 11.7827 0.0480417 11.9388 0.01793 12.1043C-0.0121817 12.2698 -0.00428363 12.4402 0.0410006 12.602L2.1678 20.2118C2.23136 20.439 2.3656 20.6388 2.55018 20.7811C2.73477 20.9233 2.95965 21.0001 3.19079 21H11.698C11.9291 21.0001 12.154 20.9233 12.3386 20.7811C12.5232 20.6388 12.6574 20.439 12.721 20.2118L13.0325 19.0965C14.133 18.8828 15.195 18.4978 16.1813 17.955C17.1921 17.459 18.0309 16.6595 18.5856 15.6633C18.912 15.0634 19.0509 14.3757 18.9834 13.6927C18.9159 13.0097 18.6453 12.3643 18.2081 11.8432C18.0564 11.6783 17.8861 11.5324 17.7009 11.4084C18.057 11.0662 18.3559 10.6666 18.5856 10.2256C18.912 9.62569 19.0509 8.93795 18.9834 8.25495C18.9159 7.57195 18.6453 6.92649 18.2081 6.40546C18.0564 6.24059 17.8861 6.09463 17.7009 5.97061C18.057 5.62843 18.3559 5.22887 18.5856 4.78783C18.9107 4.18843 19.0487 3.50171 18.981 2.81984C18.9133 2.13797 18.6433 1.49357 18.207 0.973137ZM10.8962 18.8258H3.99259L2.47406 13.3902H12.4147L10.8962 18.8258ZM11.5023 11.216H3.38645L2.47512 7.9546H12.4158L11.5023 11.216ZM11.5023 5.78037H3.38645L2.47512 2.51902H12.4158L11.5023 5.78037ZM16.6959 14.661C16.3298 15.2645 15.7985 15.7449 15.1678 16.0427C14.6993 16.3011 14.2093 16.5165 13.7035 16.6863L14.6 13.4772C14.706 13.4103 14.8157 13.3496 14.9286 13.2956C15.1903 13.1335 15.4919 13.0512 15.7978 13.0583C16.1037 13.0654 16.4013 13.1617 16.6555 13.3358C16.7852 13.5298 16.8579 13.7576 16.865 13.9924C16.8722 14.2272 16.8135 14.4592 16.6959 14.661ZM16.6959 9.22544C16.3303 9.82831 15.7998 10.3083 15.17 10.6061C14.7243 10.8482 14.2598 11.0522 13.7812 11.216H13.7184L14.6064 8.04048C14.7124 7.97354 14.8221 7.91292 14.935 7.85893C15.1967 7.69683 15.4982 7.61449 15.8042 7.62162C16.1101 7.62875 16.4077 7.72503 16.6619 7.89916C16.7908 8.09386 16.8625 8.3222 16.8685 8.55721C16.8746 8.79223 16.8147 9.0241 16.6959 9.22544ZM16.6959 3.78986C16.3303 4.39273 15.7998 4.87275 15.17 5.17049C14.7243 5.41266 14.2598 5.61665 13.7812 5.78037H13.7184L14.6064 2.6049C14.7124 2.53796 14.8221 2.47734 14.935 2.42335C15.1967 2.26124 15.4982 2.17891 15.8042 2.18604C16.1101 2.19316 16.4077 2.28945 16.6619 2.46357C16.7908 2.65827 16.8625 2.88661 16.8685 3.12163C16.8746 3.35665 16.8147 3.58852 16.6959 3.78986Z" fill="black"/>
</svg>
