<svg width="15" height="17" viewBox="0 0 15 17" fill="none" xmlns="http://www.w3.org/2000/svg">
<path d="M8.91699 4.95833V0.325833C9.57224 0.573279 10.1674 0.957179 10.663 1.45208L13.1309 3.92133C13.6263 4.41637 14.0105 5.01138 14.2578 5.66667H9.62533C9.43746 5.66667 9.2573 5.59204 9.12446 5.4592C8.99162 5.32636 8.91699 5.14619 8.91699 4.95833ZM14.5837 7.42687V13.4583C14.5825 14.3973 14.209 15.2975 13.5451 15.9614C12.8811 16.6254 11.981 16.9989 11.042 17H3.95866C3.0197 16.9989 2.11951 16.6254 1.45556 15.9614C0.791617 15.2975 0.418117 14.3973 0.416992 13.4583V3.54167C0.418117 2.6027 0.791617 1.70252 1.45556 1.03857C2.11951 0.374625 3.0197 0.00112473 3.95866 0L7.15678 0C7.27224 0 7.38628 0.00920833 7.50033 0.017V4.95833C7.50033 5.52192 7.72421 6.06242 8.12272 6.46094C8.52124 6.85945 9.06174 7.08333 9.62533 7.08333H14.5667C14.5745 7.19737 14.5837 7.31142 14.5837 7.42687ZM8.91699 13.4583C8.91699 13.2705 8.84236 13.0903 8.70953 12.9575C8.57669 12.8246 8.39652 12.75 8.20866 12.75H4.66699C4.47913 12.75 4.29896 12.8246 4.16613 12.9575C4.03329 13.0903 3.95866 13.2705 3.95866 13.4583C3.95866 13.6462 4.03329 13.8264 4.16613 13.9592C4.29896 14.092 4.47913 14.1667 4.66699 14.1667H8.20866C8.39652 14.1667 8.57669 14.092 8.70953 13.9592C8.84236 13.8264 8.91699 13.6462 8.91699 13.4583ZM11.042 10.625C11.042 10.4371 10.9674 10.257 10.8345 10.1241C10.7017 9.99129 10.5215 9.91667 10.3337 9.91667H4.66699C4.47913 9.91667 4.29896 9.99129 4.16613 10.1241C4.03329 10.257 3.95866 10.4371 3.95866 10.625C3.95866 10.8129 4.03329 10.993 4.16613 11.1259C4.29896 11.2587 4.47913 11.3333 4.66699 11.3333H10.3337C10.5215 11.3333 10.7017 11.2587 10.8345 11.1259C10.9674 10.993 11.042 10.8129 11.042 10.625Z" fill="white"/>
</svg>
