<svg width="24" height="24" viewBox="0 0 24 24" fill="none" xmlns="http://www.w3.org/2000/svg">
<g clip-path="url(#clip0_773_1260)">
<path d="M24 23C24 23.55 23.55 24 23 24C21.46 24 20.71 22.88 20.17 22.05C19.67 21.3 19.42 21 19 21C18.49 21 18.1 21.44 17.49 22.15C16.79 22.98 15.92 24 14.46 24C13 24 12.14 22.97 11.46 22.13C10.88 21.43 10.5 21 10 21C9.61 21 9.37 21.25 8.84 21.91C8.12 22.79 7.13 24 5 24C2.24 24 0 21.76 0 19C0 16.24 2.24 14 5 14C5.55 14 6 14.45 6 15C6 15.55 5.55 16 5 16C3.35 16 2 17.35 2 19C2 20.65 3.35 22 5 22C6.18 22 6.67 21.4 7.29 20.64C7.89 19.91 8.63 19 10 19C11.47 19 12.32 20.03 13 20.87C13.58 21.57 13.96 22 14.46 22C14.96 22 15.36 21.56 15.97 20.85C16.67 20.02 17.54 19 19 19C20.46 19 21.29 20.12 21.83 20.95C22.33 21.7 22.58 22 23 22C23.55 22 24 22.45 24 23ZM8.99 16H9.93C10.99 16 12.01 15.58 12.76 14.83L20.48 7.11L16.89 3.52L9.17 11.24C8.42 11.99 8 13.01 8 14.07V15.01C8 15.56 8.44 16 8.99 16ZM23.26 4.33C23.74 3.85 24 3.21 24 2.53C24 1.85 23.74 1.21 23.26 0.739998C22.27 -0.250002 20.66 -0.250002 19.67 0.739998L18.31 2.1L21.9 5.69L23.26 4.33Z" fill="white"/>
</g>
<defs>
<clipPath id="clip0_773_1260">
<rect width="24" height="24" fill="white"/>
</clipPath>
</defs>
</svg>
