<svg width="17" height="17" viewBox="0 0 17 17" fill="none" xmlns="http://www.w3.org/2000/svg">
<path d="M8.50024 11.3323C10.0645 11.3323 11.3325 10.0642 11.3325 8.5C11.3325 6.93578 10.0645 5.66772 8.50024 5.66772C6.93602 5.66772 5.66797 6.93578 5.66797 8.5C5.66797 10.0642 6.93602 11.3323 8.50024 11.3323Z" fill="white"/>
<path d="M16.4806 6.67248C15.3824 4.88389 12.8844 1.88308 8.49998 1.88308C4.11561 1.88308 1.61754 4.88389 0.51932 6.67248C-0.173107 7.79244 -0.173107 9.20756 0.51932 10.3276C1.61754 12.1161 4.11561 15.117 8.49998 15.117C12.8844 15.117 15.3824 12.1161 16.4806 10.3276C17.1731 9.20756 17.1731 7.79244 16.4806 6.67248ZM8.49998 12.7484C6.15366 12.7484 4.25156 10.8463 4.25156 8.5C4.25156 6.15367 6.15366 4.25158 8.49998 4.25158C10.8463 4.25158 12.7484 6.15367 12.7484 8.5C12.7461 10.8454 10.8453 12.7461 8.49998 12.7484Z" fill="white"/>
</svg>
