<svg width="22" height="22" viewBox="0 0 22 22" fill="none" xmlns="http://www.w3.org/2000/svg">
<path d="M1.21635 11.3667L4.47968 13.75L3.24035 17.5881C3.04007 18.1834 3.03753 18.8274 3.23312 19.4243C3.4287 20.0211 3.81193 20.5387 4.32568 20.9C4.83063 21.2729 5.44254 21.4726 6.07024 21.4695C6.69794 21.4664 7.30782 21.2605 7.80902 20.8826L10.9999 18.5341L14.1918 20.8798C14.6958 21.2506 15.3044 21.452 15.9301 21.455C16.5558 21.4581 17.1663 21.2626 17.674 20.8968C18.1816 20.531 18.5601 20.0136 18.7552 19.4191C18.9502 18.8246 18.9518 18.1835 18.7595 17.5881L17.5202 13.75L20.7835 11.3667C21.2869 10.9986 21.6611 10.4809 21.8527 9.88753C22.0442 9.29412 22.0434 8.65534 21.8502 8.06245C21.6571 7.46955 21.2815 6.95286 20.7771 6.58617C20.2728 6.21949 19.6654 6.02156 19.0419 6.02068H15.0333L13.8168 2.22934C13.6256 1.63255 13.2497 1.11194 12.7434 0.742569C12.2371 0.373199 11.6266 0.174164 10.9999 0.174164C10.3732 0.174164 9.76274 0.373199 9.25646 0.742569C8.75019 1.11194 8.3743 1.63255 8.18302 2.22934L6.9666 6.02068H2.96168C2.33811 6.02156 1.73077 6.21949 1.22641 6.58617C0.722053 6.95286 0.34647 7.46955 0.153311 8.06245C-0.0398488 8.65534 -0.0407037 9.29412 0.150868 9.88753C0.34244 10.4809 0.716638 10.9986 1.22002 11.3667H1.21635Z" fill="white"/>
</svg>
