<svg width="20" height="22" viewBox="0 0 20 22" fill="none" xmlns="http://www.w3.org/2000/svg">
<path fill-rule="evenodd" clip-rule="evenodd" d="M8.02832 0.11813C7.6972 0.2952 7.53435 0.61638 7.49949 0.97965C7.48448 1.15538 7.46193 1.32986 7.43128 1.50363C7.36622 1.87248 7.24295 2.3937 7.01197 2.98313C6.55122 4.15891 5.67015 5.58926 3.96977 6.65195C1.5735 8.14956 0.684654 11.5146 1.06448 14.527C1.45226 17.6026 3.20863 20.7903 6.68367 21.9486C7.02992 22.0641 7.41155 21.9817 7.67934 21.7337C8.00702 21.4303 8.02372 21.0282 7.94044 20.6223C7.87933 20.3244 7.74991 19.5785 7.74991 18.6875C7.74991 18.3992 7.76324 18.1034 7.79405 17.8068C8.32812 19.031 9.05212 19.9238 9.77572 20.5623C10.8521 21.5121 11.8693 21.8574 12.1721 21.9466C12.4019 22.0143 12.6461 22.0185 12.8711 21.9284C15.5282 20.8656 17.201 19.4232 18.1355 17.7742C19.0679 16.1288 19.1992 14.3939 18.9906 12.8648C18.7832 11.3436 18.2353 9.9849 17.7536 9.0215C17.3893 8.29292 17.0533 7.77091 16.8991 7.54242C16.71 7.26241 16.4636 7.04626 16.1127 7.00636C15.8331 6.97456 15.553 7.06207 15.3412 7.24739L13.7762 8.61686C13.9106 6.44482 13.1465 4.61996 12.1981 3.24472C11.5094 2.24609 10.7236 1.47913 10.115 0.96354C9.80932 0.70448 9.54422 0.50549 9.35242 0.36923C9.25632 0.30103 9.17832 0.24831 9.12232 0.21142C8.79072 -0.00709036 8.39302 -0.0768754 8.02832 0.11813ZM5.76388 19.256C5.75503 19.0744 5.74991 18.8842 5.74991 18.6875C5.74992 17.6347 5.89669 16.3059 6.47794 15.0708C6.67263 14.6572 6.91606 14.254 7.21906 13.8753C7.474 13.5566 7.89701 13.4248 8.28782 13.5423C8.67862 13.6598 8.95892 14.003 8.99582 14.4094C9.22202 16.8977 10.2224 18.2892 11.0989 19.0626C11.5468 19.4579 11.9789 19.7056 12.2919 19.8525C13.4999 19.9999 15.8848 17.6892 16.3954 16.7882C17.0568 15.6211 17.1755 14.356 17.009 13.1351C16.8145 11.7092 16.2303 10.3897 15.7655 9.5337L12.6584 12.2525C12.3032 12.5634 11.7789 12.5835 11.4009 12.3008C11.0229 12.018 10.8941 11.5095 11.0919 11.0809C12.408 8.22933 11.6549 5.97987 10.5517 4.38019C10.1137 3.74521 9.62082 3.21649 9.17992 2.80695C9.09982 3.088 8.99962 3.39262 8.87412 3.71284C8.69592 4.16755 8.46612 4.65531 8.17032 5.15187C7.50793 6.26379 6.51475 7.41987 5.02974 8.34797C3.57744 9.2556 2.71638 11.6406 3.04877 14.2768C3.29936 16.2643 4.20233 18.1244 5.76388 19.256Z" fill="black"/>
</svg>
