<svg width="28" height="28" viewBox="0 0 28 28" fill="none" xmlns="http://www.w3.org/2000/svg">
<g clip-path="url(#clip0_671_879)">
<path d="M18.0564 21.7117C18.0564 20.2148 17.1137 19.3445 15.3065 17.8103C14.8982 17.4603 14.4572 17.0893 14.0022 16.6763C13.483 17.1535 12.9895 17.5735 12.5369 17.9597C10.7332 19.4833 9.94336 20.2288 9.94336 21.7117C9.94336 22.7875 10.3707 23.8193 11.1315 24.58C11.8922 25.3408 12.924 25.7682 13.9999 25.7682C15.0757 25.7682 16.1075 25.3408 16.8682 24.58C17.629 23.8193 18.0564 22.7875 18.0564 21.7117Z" fill="white"/>
<path d="M19.1428 4.7075C17.7428 3.51867 16.2961 2.29017 14.8331 0.828333L14.0001 0L13.1834 0.8295C10.5538 3.4685 9.31008 7.5215 8.77108 9.95283C8.35748 9.3124 8.05055 8.60909 7.86225 7.87033L7.36408 5.9605L5.92558 7.31033C3.40675 9.67633 1.72558 12.0225 1.72558 15.7792C1.70136 18.4899 2.58373 21.1311 4.2325 23.2829C5.88127 25.4348 8.20186 26.9739 10.8256 27.6558C11.4848 27.8228 12.1562 27.9379 12.8334 28C11.3649 27.7263 10.0382 26.9481 9.08273 25.7998C8.12726 24.6515 7.60311 23.2055 7.60092 21.7117C7.60092 19.0867 9.18408 17.745 11.0169 16.1793C11.6714 15.6228 12.4169 14.9917 13.1694 14.2345L14.0001 13.4085L14.8261 14.2345C15.4981 14.9065 16.1701 15.4758 16.8199 16.0288C18.6586 17.5887 20.3946 19.0622 20.3946 21.7117C20.3927 23.1996 19.8728 24.6404 18.9241 25.7866C17.9754 26.9329 16.6572 27.713 15.1959 27.993C18.2299 27.6986 21.0454 26.2847 23.0935 24.027C25.1415 21.7693 26.2752 18.8297 26.2734 15.7815C26.2734 10.7625 22.9683 7.95667 19.1428 4.7075Z" fill="white"/>
</g>
<defs>
<clipPath id="clip0_671_879">
<rect width="28" height="28" fill="white"/>
</clipPath>
</defs>
</svg>
