<svg width="20" height="12" viewBox="0 0 20 12" fill="none" xmlns="http://www.w3.org/2000/svg">
<path d="M7.5 1C9.89409 1.11107 12.1672 2.08426 13.9 3.74C14.2656 3.26416 14.7166 2.86061 15.23 2.55C15.7989 2.2069 16.4507 2.02558 17.115 2.02558C17.7793 2.02558 18.4311 2.2069 19 2.55C18.9757 3.25458 18.7719 3.9413 18.4079 4.54506C18.0439 5.14882 17.5318 5.64962 16.92 6C17.5374 6.3539 18.0532 6.86098 18.4176 7.4723C18.7819 8.08363 18.9825 8.77855 19 9.49C18.4311 9.83309 17.7793 10.0144 17.115 10.0144C16.4507 10.0144 15.7989 9.83309 15.23 9.49C14.7166 9.17939 14.2656 8.77584 13.9 8.3C12.1613 9.94114 9.88881 10.8998 7.5 11C2.5 11 1 6 1 6C1 6 2.5 1 7.5 1Z" stroke="black" stroke-width="2" stroke-linecap="round" stroke-linejoin="round"/>
</svg>
