<svg width="30" height="27" viewBox="0 0 30 27" fill="none" xmlns="http://www.w3.org/2000/svg">
<path d="M21.5625 0.313721C20.2804 0.326124 19.019 0.638645 17.8794 1.22625C16.7398 1.81385 15.7537 2.66019 15 3.69747C14.2463 2.66019 13.2602 1.81385 12.1206 1.22625C10.981 0.638645 9.71961 0.326124 8.4375 0.313721C6.11471 0.406479 3.92314 1.41519 2.34202 3.1193C0.760886 4.82341 -0.0811614 7.08425 -4.62821e-06 9.40747C-4.62821e-06 15.0975 5.8425 21.1887 10.75 25.2975C11.9417 26.2995 13.4487 26.8489 15.0056 26.8489C16.5626 26.8489 18.0696 26.2995 19.2612 25.2975C24.1637 21.1887 30.0112 15.0975 30.0112 9.40747C30.0924 7.08238 29.2488 4.81989 27.6652 3.11546C26.0817 1.41103 23.8873 0.403581 21.5625 0.313721ZM16.8462 22.4237C16.3293 22.859 15.6752 23.0977 14.9994 23.0977C14.3236 23.0977 13.6695 22.859 13.1525 22.4237C7.1775 17.4137 3.75 12.67 3.75 9.40747C3.6703 8.07899 4.11785 6.77269 4.99547 5.7722C5.8731 4.77171 7.10995 4.15778 8.4375 4.06372C9.76504 4.15778 11.0019 4.77171 11.8795 5.7722C12.7571 6.77269 13.2047 8.07899 13.125 9.40747C13.125 9.90475 13.3225 10.3817 13.6742 10.7333C14.0258 11.0849 14.5027 11.2825 15 11.2825C15.4973 11.2825 15.9742 11.0849 16.3258 10.7333C16.6775 10.3817 16.875 9.90475 16.875 9.40747C16.7953 8.07899 17.2428 6.77269 18.1205 5.7722C18.9981 4.77171 20.235 4.15778 21.5625 4.06372C22.89 4.15778 24.1269 4.77171 25.0045 5.7722C25.8821 6.77269 26.3297 8.07899 26.25 9.40747C26.25 12.67 22.8225 17.4137 16.8462 22.4237Z" fill="#F3D538"/>
<path d="M24 2.99997H19.5L16.5 5.99997L15 7.99997C14.3333 7.16664 12.9 5.29997 12.5 4.49997C12 3.49997 10 2.99997 9.5 2.99997H6.5C5.5 2.99997 3.5 5.49997 3.5 6.49997C3.5 7.29997 2.83333 10.1666 2.5 11.5C4 13.8333 7.1 18.6 7.5 19C7.9 19.4 11 22.8333 12.5 24.5C13.3333 24.5 15.2 24.4 16 24C16.8 23.6 19.6667 21.8333 21 21C22.3333 19.3333 25.1 15.9 25.5 15.5C25.9 15.1 27 11.6666 27.5 9.99997L26.5 6.49997L24 2.99997Z" fill="#F3D538"/>
</svg>
