<svg width="22" height="22" viewBox="0 0 22 22" fill="none" xmlns="http://www.w3.org/2000/svg">
<g clip-path="url(#clip0_1070_549)">
<path d="M15.5833 16.4932V21.9932H19.25C20.7688 21.9932 22 20.7619 22 19.2432V10.8823C22.0002 10.406 21.8151 9.94843 21.4839 9.60627L13.6941 1.18482C12.3196 -0.302328 9.99982 -0.393637 8.51267 0.980848C8.44203 1.04616 8.37396 1.11418 8.30869 1.18482L0.532598 9.60352C0.19134 9.94709 -0.000128841 10.4118 6.50474e-08 10.896V19.2432C6.50474e-08 20.7619 1.23123 21.9932 2.75 21.9932H6.41665V16.4932C6.4338 13.9936 8.45191 11.9524 10.8885 11.8936C13.4067 11.8329 15.5641 13.9088 15.5833 16.4932Z" fill="white"/>
<path d="M11 13.7432C9.48123 13.7432 8.25 14.9744 8.25 16.4932V21.9932H13.75V16.4932C13.75 14.9744 12.5188 13.7432 11 13.7432Z" fill="white"/>
</g>
<defs>
<clipPath id="clip0_1070_549">
<rect width="22" height="22" fill="white"/>
</clipPath>
</defs>
</svg>
