<svg width="17" height="17" viewBox="0 0 17 17" fill="none" xmlns="http://www.w3.org/2000/svg">
<path d="M11.3254 8.99584V7.08334C11.3254 6.89548 11.4001 6.71531 11.5329 6.58247C11.6657 6.44963 11.8459 6.37501 12.0338 6.37501H12.7421C12.93 6.37501 13.1101 6.30038 13.243 6.16754C13.3758 6.0347 13.4504 5.85453 13.4504 5.66667V4.95834C13.4504 4.77048 13.5251 4.59031 13.6579 4.45747C13.7907 4.32463 13.9709 4.25001 14.1588 4.25001H16.0607C16.1988 4.24933 16.3339 4.2089 16.4497 4.13354C16.5655 4.05817 16.6572 3.95107 16.7137 3.82501C16.953 3.29813 17.045 2.71629 16.9801 2.1413C16.8991 1.54263 16.6019 0.994307 16.1443 0.599816C15.6868 0.205326 15.1007 -0.00803588 14.4967 5.67618e-06C13.6443 5.9579e-05 12.827 0.338681 12.2243 0.941381L6.62282 6.54146C5.7199 6.3069 4.77062 6.31864 3.87378 6.57546C2.6399 6.92438 1.57386 7.70779 0.872358 8.78115C0.17086 9.8545 -0.118751 11.1454 0.0569681 12.4155C0.232687 13.6857 0.861876 14.8494 1.82843 15.692C2.79499 16.5346 4.03368 16.9992 5.31594 17C5.50143 16.9998 5.68679 16.9901 5.87128 16.971C6.92681 16.856 7.92401 16.4287 8.73517 15.7436C9.54633 15.0585 10.1345 14.1468 10.4244 13.1254C10.6821 12.2289 10.6936 11.2796 10.4577 10.3771L10.9182 9.91667C11.163 9.67057 11.3081 9.34255 11.3254 8.99584ZM3.89574 14.1667C3.68559 14.1667 3.48017 14.1044 3.30544 13.9876C3.13072 13.8709 2.99453 13.7049 2.91411 13.5108C2.8337 13.3166 2.81265 13.103 2.85365 12.8969C2.89465 12.6908 2.99584 12.5015 3.14444 12.3529C3.29303 12.2043 3.48235 12.1031 3.68845 12.0621C3.89456 12.0211 4.10819 12.0421 4.30234 12.1226C4.49648 12.203 4.66242 12.3392 4.77917 12.5139C4.89592 12.6886 4.95824 12.894 4.95824 13.1042C4.95824 13.386 4.84629 13.6562 4.64704 13.8555C4.44778 14.0547 4.17753 14.1667 3.89574 14.1667Z" fill="white"/>
</svg>
