<svg width="24" height="22" viewBox="0 0 24 22" fill="none" xmlns="http://www.w3.org/2000/svg">
<path d="M11.7352 18.057C9.55321 20.248 6.05821 21.852 2.55721 21.991C2.46021 21.995 1.87121 21.998 1.26721 21.999C0.44921 22.001 -0.16179 21.23 0.0382097 20.437C0.31821 19.329 0.89221 18.306 1.71221 17.483L9.00921 10.287L14.2422 15.534L11.7352 18.057ZM22.9412 1.06497C22.2532 0.374972 21.4092 0.00897217 20.4982 0.00897217C19.7562 0.00897217 18.6172 0.264972 17.4092 1.47697L10.7992 8.00497C10.4062 8.39297 10.4022 9.02597 10.7902 9.41897C10.8312 9.46097 16.8982 15.347 16.8982 15.347C17.1762 15.626 17.5442 15.77 17.9182 15.77C18.1762 15.77 18.4372 15.701 18.6712 15.56C19.2442 15.214 19.4972 14.556 19.2992 13.922C18.6442 11.808 18.5532 10.657 20.1882 9.02197L22.9422 6.19497C24.3512 4.77997 24.3502 2.47897 22.9412 1.06497ZM20.0022 5.46497C19.1742 5.46497 18.5022 4.79297 18.5022 3.96497C18.5022 3.13697 19.1742 2.46497 20.0022 2.46497C20.8302 2.46497 21.5022 3.13697 21.5022 3.96497C21.5022 4.79297 20.8302 5.46497 20.0022 5.46497Z" fill="white"/>
</svg>
