<svg width="25" height="25" viewBox="0 0 25 25" fill="none" xmlns="http://www.w3.org/2000/svg">
<path d="M15.625 23.6979H9.375C7.21875 23.6979 5.46875 21.9479 5.46875 19.7917V14.5625C5.46875 14.3542 5.55205 14.1563 5.69789 14.0104C5.84372 13.8646 6.04167 13.7812 6.25 13.7812L10.3021 13.8021C11.1771 13.8021 12.0521 14.0104 12.8437 14.4063C13.4271 14.6979 14.0521 14.8438 14.7083 14.8438H18.75C19.1771 14.8438 19.5312 15.1979 19.5312 15.625V19.7917C19.5312 21.9479 17.7812 23.6979 15.625 23.6979ZM7.03125 15.3438V19.7917C7.03125 21.0833 8.08333 22.1354 9.375 22.1354H15.625C16.9167 22.1354 17.9687 21.0833 17.9687 19.7917V16.4063H14.7083C13.8125 16.4063 12.9479 16.2083 12.1458 15.8021C11.5625 15.5104 10.9375 15.3646 10.3021 15.3646L7.03125 15.3438Z" fill="#0E0E0E"/>
<path d="M18.75 16.4062H14.7083C13.8125 16.4062 12.9479 16.2083 12.1458 15.8021C11.5625 15.5104 10.9375 15.3646 10.3021 15.3646L6.25 15.3437C5.82292 15.3437 5.46875 14.9896 5.46875 14.5625V11.2812C5.46875 10.5937 5.82292 9.73958 6.3125 9.24999L8.52082 7.04165C8.56249 6.99998 8.59375 6.92708 8.59375 6.86458V5.20833C8.59375 4.78124 8.94792 4.42708 9.375 4.42708H15.625C16.0521 4.42708 16.4062 4.78124 16.4062 5.20833V6.86458C16.4062 6.92708 16.4375 6.99998 16.4792 7.04165L18.6875 9.24999C19.1771 9.73958 19.5312 10.5937 19.5312 11.2812V15.625C19.5312 16.0521 19.1771 16.4062 18.75 16.4062ZM7.03125 13.7812L10.3021 13.8021C11.1771 13.8021 12.0521 14.0104 12.8437 14.4062C13.4271 14.6979 14.0521 14.8437 14.7083 14.8437H17.9687V11.2812C17.9687 11.0104 17.7812 10.5521 17.5833 10.3542L15.375 8.14584C15.0417 7.81251 14.8437 7.34374 14.8437 6.86458V5.98958H10.1562V6.86458C10.1562 7.34374 9.95832 7.81251 9.62499 8.14584L7.41667 10.3542C7.21875 10.5521 7.03125 11.0104 7.03125 11.2812V13.7812Z" fill="#0E0E0E"/>
<path d="M18.75 17.4479C18.3229 17.4479 17.9688 17.0938 17.9688 16.6667V15.625C17.9688 15.1979 18.3229 14.8438 18.75 14.8438C19.1771 14.8438 19.5312 15.1979 19.5312 15.625V16.6667C19.5312 17.0938 19.1771 17.4479 18.75 17.4479Z" fill="#0E0E0E"/>
<path d="M6.25 16.3854C5.82292 16.3854 5.46875 16.0312 5.46875 15.6042V14.5625C5.46875 14.1354 5.82292 13.7812 6.25 13.7812C6.67708 13.7812 7.03125 14.1354 7.03125 14.5625V15.6042C7.03125 16.0312 6.67708 16.3854 6.25 16.3854Z" fill="#0E0E0E"/>
<path d="M15.1041 5.98958H9.89575C8.60409 5.98958 7.552 4.93749 7.552 3.64583C7.552 2.35416 8.60409 1.30208 9.89575 1.30208H15.1041C16.3958 1.30208 17.4478 2.35416 17.4478 3.64583C17.4478 4.93749 16.3958 5.98958 15.1041 5.98958ZM9.89575 2.86458C9.46867 2.86458 9.1145 3.21874 9.1145 3.64583C9.1145 4.07291 9.46867 4.42708 9.89575 4.42708H15.1041C15.5312 4.42708 15.8853 4.07291 15.8853 3.64583C15.8853 3.21874 15.5312 2.86458 15.1041 2.86458H9.89575Z" fill="#0E0E0E"/>
</svg>
