<svg width="13" height="17" viewBox="0 0 13 17" fill="none" xmlns="http://www.w3.org/2000/svg">
<path d="M8.62535 17C7.435 16.9991 6.25806 16.7486 5.17049 16.2647C4.08293 15.7809 3.1089 15.0743 2.31127 14.1907C1.50762 13.3061 0.901272 12.2607 0.532464 11.1239C0.163657 9.98706 0.0408193 8.7848 0.172103 7.59687C0.383755 5.74813 1.19026 4.01818 2.47019 2.66748C3.75013 1.31677 5.43421 0.418415 7.2689 0.107665C8.45494 -0.0755282 9.66531 -0.0262092 10.8325 0.252873C11.1382 0.331398 11.4173 0.490167 11.6409 0.712752C11.8646 0.935337 12.0248 1.21365 12.1048 1.51889C12.1848 1.82414 12.1818 2.14522 12.0961 2.44892C12.0104 2.75262 11.8451 3.02791 11.6174 3.24629C8.38735 6.19721 8.66785 10.7858 12.189 13.4534C12.4379 13.6488 12.63 13.9073 12.7451 14.2021C12.8603 14.4969 12.8943 14.8172 12.8437 15.1296C12.7931 15.442 12.6596 15.7352 12.4573 15.9785C12.2549 16.2219 11.9911 16.4066 11.6931 16.5134C10.7028 16.8369 9.66726 17.0012 8.62535 17Z" fill="white"/>
</svg>
