<svg width="17" height="17" viewBox="0 0 17 17" fill="none" xmlns="http://www.w3.org/2000/svg">
<path d="M8.5 11.3333C7.93962 11.3333 7.39182 11.1672 6.92588 10.8558C6.45995 10.5445 6.09679 10.102 5.88234 9.58427C5.66789 9.06655 5.61178 8.49686 5.72111 7.94725C5.83043 7.39763 6.10028 6.89278 6.49653 6.49653C6.89278 6.10028 7.39763 5.83043 7.94724 5.72111C8.49686 5.61178 9.06655 5.66789 9.58427 5.88234C10.102 6.09679 10.5445 6.45995 10.8558 6.92589C11.1672 7.39183 11.3333 7.93962 11.3333 8.5C11.3333 9.25145 11.0348 9.97212 10.5035 10.5035C9.97212 11.0348 9.25145 11.3333 8.5 11.3333ZM4.02546 11.3333H0.708333C0.520472 11.3333 0.340304 11.2587 0.207466 11.1259C0.0746278 10.993 0 10.8129 0 10.625C0.00671205 9.60791 0.376638 8.62669 1.04306 7.85831C1.70948 7.08993 2.62853 6.58497 3.63446 6.4345C3.75135 6.41812 3.87048 6.43122 3.98102 6.47259C4.09156 6.51396 4.19002 6.5823 4.26743 6.6714C4.34485 6.7605 4.39877 6.86753 4.4243 6.98277C4.44983 7.098 4.44616 7.21779 4.41362 7.33125C4.30508 7.71135 4.25001 8.10471 4.25 8.5C4.2502 9.13024 4.39206 9.75238 4.66508 10.3204C4.71643 10.4282 4.73969 10.5473 4.7327 10.6665C4.7257 10.7857 4.68868 10.9012 4.62507 11.0023C4.56145 11.1034 4.47332 11.1867 4.36886 11.2446C4.2644 11.3025 4.147 11.333 4.02758 11.3333H4.02546ZM12.0417 17H4.95833C4.77047 17 4.5903 16.9254 4.45747 16.7925C4.32463 16.6597 4.25 16.4795 4.25 16.2917C4.25 15.1645 4.69777 14.0835 5.4948 13.2865C6.29183 12.4894 7.37283 12.0417 8.5 12.0417C9.62717 12.0417 10.7082 12.4894 11.5052 13.2865C12.3022 14.0835 12.75 15.1645 12.75 16.2917C12.75 16.4795 12.6754 16.6597 12.5425 16.7925C12.4097 16.9254 12.2295 17 12.0417 17ZM12.75 5.66667C12.1896 5.66667 11.6418 5.5005 11.1759 5.18917C10.7099 4.87783 10.3468 4.43533 10.1323 3.9176C9.91789 3.39988 9.86178 2.83019 9.97111 2.28058C10.0804 1.73097 10.3503 1.22611 10.7465 0.829865C11.1428 0.433617 11.6476 0.163768 12.1972 0.054443C12.7469 -0.0548818 13.3165 0.00122763 13.8343 0.215676C14.352 0.430124 14.7945 0.79328 15.1058 1.25922C15.4172 1.72516 15.5833 2.27295 15.5833 2.83333C15.5833 3.58478 15.2848 4.30545 14.7535 4.8368C14.2221 5.36816 13.5014 5.66667 12.75 5.66667ZM4.25 5.66667C3.68962 5.66667 3.14182 5.5005 2.67588 5.18917C2.20994 4.87783 1.84679 4.43533 1.63234 3.9176C1.41789 3.39988 1.36178 2.83019 1.47111 2.28058C1.58043 1.73097 1.85028 1.22611 2.24653 0.829865C2.64278 0.433617 3.14763 0.163768 3.69724 0.054443C4.24686 -0.0548818 4.81655 0.00122763 5.33427 0.215676C5.85199 0.430124 6.2945 0.79328 6.60583 1.25922C6.91716 1.72516 7.08333 2.27295 7.08333 2.83333C7.08333 3.58478 6.78482 4.30545 6.25347 4.8368C5.72212 5.36816 5.00145 5.66667 4.25 5.66667ZM16.2917 11.3333H12.9745C12.8551 11.333 12.7377 11.3025 12.6333 11.2446C12.5288 11.1867 12.4407 11.1034 12.3771 11.0023C12.3134 10.9012 12.2764 10.7857 12.2694 10.6665C12.2624 10.5473 12.2857 10.4282 12.337 10.3204C12.6093 9.75221 12.7505 9.13008 12.75 8.5C12.7488 8.10454 12.6926 7.71118 12.5828 7.33125C12.5501 7.21747 12.5464 7.0973 12.5721 6.98173C12.5978 6.86616 12.6521 6.75887 12.7299 6.66967C12.8078 6.58048 12.9067 6.51222 13.0178 6.47113C13.1288 6.43005 13.2484 6.41746 13.3655 6.4345C14.3715 6.58497 15.2905 7.08993 15.9569 7.85831C16.6234 8.62669 16.9933 9.60791 17 10.625C17 10.8129 16.9254 10.993 16.7925 11.1259C16.6597 11.2587 16.4795 11.3333 16.2917 11.3333Z" fill="white"/>
</svg>
