<svg width="28" height="28" viewBox="0 0 28 28" fill="none" xmlns="http://www.w3.org/2000/svg">
<g clip-path="url(#clip0_671_886)">
<path d="M28 25.6667C28 25.9761 27.8771 26.2728 27.6583 26.4916C27.4395 26.7104 27.1428 26.8333 26.8333 26.8333H1.16667C0.857247 26.8333 0.560501 26.7104 0.341709 26.4916C0.122916 26.2728 0 25.9761 0 25.6667C0 25.3573 0.122916 25.0605 0.341709 24.8417C0.560501 24.6229 0.857247 24.5 1.16667 24.5H26.8333C27.1428 24.5 27.4395 24.6229 27.6583 24.8417C27.8771 25.0605 28 25.3573 28 25.6667ZM2.33333 22.1667H25.6667C25.9761 22.1667 26.2728 22.0438 26.4916 21.825C26.7104 21.6062 26.8333 21.3094 26.8333 21V19.8333C26.8291 16.6336 25.6307 13.5506 23.4729 11.1879C21.315 8.82523 18.353 7.35303 15.1667 7.05951V5.51017C15.6115 5.25335 15.9592 4.85692 16.1557 4.38237C16.3523 3.90783 16.3868 3.38168 16.2538 2.88554C16.1209 2.38939 15.8279 1.95098 15.4204 1.63829C15.0129 1.3256 14.5136 1.15611 14 1.15611C13.4864 1.15611 12.9871 1.3256 12.5796 1.63829C12.1721 1.95098 11.8791 2.38939 11.7462 2.88554C11.6132 3.38168 11.6477 3.90783 11.8443 4.38237C12.0408 4.85692 12.3885 5.25335 12.8333 5.51017V7.05951C9.64704 7.35303 6.68502 8.82523 4.52714 11.1879C2.36926 13.5506 1.1709 16.6336 1.16667 19.8333V21C1.16667 21.3094 1.28958 21.6062 1.50838 21.825C1.72717 22.0438 2.02391 22.1667 2.33333 22.1667Z" fill="white"/>
</g>
<defs>
<clipPath id="clip0_671_886">
<rect width="28" height="28" fill="white"/>
</clipPath>
</defs>
</svg>
