<svg width="20" height="20" viewBox="0 0 20 20" fill="none" xmlns="http://www.w3.org/2000/svg">
<g clip-path="url(#clip0_1002_956)">
<path d="M9.99969 13.3334C10.9202 13.3334 11.6664 12.5872 11.6664 11.6667C11.6664 10.7462 10.9202 10 9.99969 10C9.07921 10 8.33301 10.7462 8.33301 11.6667C8.33301 12.5872 9.07921 13.3334 9.99969 13.3334Z" fill="white"/>
<path d="M18.78 3.435L16.565 1.22C16.3434 1.00184 16.0979 0.809258 15.8333 0.64582V2.5C15.8305 4.80004 13.9667 6.66391 11.6666 6.66668H8.33332C6.03328 6.66391 4.16941 4.80004 4.16668 2.5V0C1.86664 0.00277344 0.00277344 1.86664 0 4.16668V15.8334C0.00277344 18.1334 1.86664 19.9973 4.16668 20H15.8334C18.1334 19.9973 19.9973 18.1334 20 15.8334V6.38086C20.0031 5.27535 19.5638 4.21457 18.78 3.435ZM10 15C8.15906 15 6.66668 13.5076 6.66668 11.6667C6.66668 9.82574 8.15906 8.33336 10 8.33336C11.8409 8.33336 13.3333 9.82574 13.3333 11.6667C13.3333 13.5076 11.8409 15 10 15Z" fill="white"/>
<path d="M8.33301 4.99999H11.6663C13.047 4.99999 14.1663 3.88069 14.1663 2.49999V0.0533508C13.9852 0.0238196 13.8023 0.00600708 13.6188 3.05176e-05H5.83301V2.50003C5.83301 3.88069 6.9523 4.99999 8.33301 4.99999Z" fill="white"/>
</g>
<defs>
<clipPath id="clip0_1002_956">
<rect width="20" height="20" fill="white"/>
</clipPath>
</defs>
</svg>
