<svg width="20" height="22" viewBox="0 0 20 22" fill="none" xmlns="http://www.w3.org/2000/svg">
<path d="M0.473041 16.5C1.23127 17.816 2.91276 18.2681 4.22872 17.5099C4.22963 17.5093 4.23049 17.5088 4.23139 17.5083L4.63929 17.2727C5.40929 17.9315 6.29436 18.4424 7.24994 18.7797V19.25C7.24994 20.7688 8.48117 22 9.99994 22C11.5187 22 12.7499 20.7688 12.7499 19.25V18.7798C13.7057 18.4419 14.5908 17.9304 15.3606 17.2709L15.7703 17.5074C17.0866 18.2668 18.7693 17.8154 19.5287 16.4991C20.2881 15.1828 19.8367 13.5001 18.5203 12.7407L18.1133 12.5061C18.2966 11.5091 18.2966 10.4872 18.1133 9.49021L18.5203 9.25555C19.8366 8.49617 20.2881 6.81351 19.5287 5.49721C18.7693 4.18095 17.0867 3.72947 15.7703 4.48886L15.3624 4.72446C14.5917 4.06648 13.706 3.55652 12.7499 3.22025V2.75C12.7499 1.23123 11.5187 0 9.99994 0C8.48117 0 7.24994 1.23123 7.24994 2.75V3.22025C6.29423 3.55811 5.40912 4.06961 4.63929 4.7291L4.22954 4.4917C2.91324 3.73227 1.23058 4.18374 0.471193 5.5C-0.288193 6.81626 0.163236 8.49896 1.47954 9.25835L1.88654 9.493C1.70332 10.4899 1.70332 11.5119 1.88654 12.5088L1.47954 12.7435C0.166889 13.5049 -0.28308 15.1843 0.473041 16.5ZM9.99994 7.33335C12.025 7.33335 13.6666 8.97497 13.6666 11C13.6666 13.025 12.025 14.6667 9.99994 14.6667C7.97491 14.6667 6.33329 13.025 6.33329 11C6.33329 8.97497 7.97491 7.33335 9.99994 7.33335Z" fill="white"/>
</svg>
