<svg width="24" height="24" viewBox="0 0 24 24" fill="none" xmlns="http://www.w3.org/2000/svg">
<path d="M22.4249 18.225C22.4249 18.15 22.5 18.15 22.5 18.075C22.5 18 22.5 18 22.5 17.925C22.5 17.85 22.5 17.85 22.5 17.775C22.5 17.7 22.5 17.7 22.5 17.625C22.5 17.55 22.5 17.55 22.4249 17.475C22.4249 17.475 22.4249 17.475 22.4249 17.4L20.85 14.775L12.6 1.87501C12.3 1.42501 11.625 1.42501 11.325 1.87501L3.22495 14.85L1.64995 17.475C1.64995 17.475 1.64995 17.475 1.64995 17.55C1.64995 17.625 1.57495 17.625 1.57495 17.7C1.57495 17.775 1.57495 17.775 1.57495 17.85C1.57495 17.925 1.57495 17.925 1.57495 18C1.57495 18.075 1.57495 18.075 1.57495 18.15C1.57495 18.225 1.57495 18.225 1.64995 18.3C1.64995 18.375 1.72495 18.375 1.72495 18.45C1.72495 18.45 1.72495 18.45 1.72495 18.525C4.19995 21 7.94995 22.5 12 22.5C16.05 22.5 19.8 21 22.275 18.375C22.275 18.375 22.275 18.375 22.275 18.3C22.35 18.3 22.35 18.225 22.4249 18.225ZM12 3.67501L19.2 15.225C17.475 16.95 14.85 18 12 18C9.14995 18 6.52495 16.95 4.79995 15.15L12 3.67501ZM3.22495 17.7L3.97495 16.425C5.99995 18.3 8.84995 19.425 12 19.425C15.15 19.425 18 18.3 20.025 16.425L20.775 17.7C18.6 19.8 15.375 21 12 21C8.62495 21 5.39995 19.8 3.22495 17.7Z" fill="black"/>
<path d="M10.05 11.325C9.67496 11.175 9.22496 11.325 9.07496 11.625L7.57496 14.625C7.42496 15 7.57496 15.45 7.87496 15.6C8.02496 15.75 8.09996 15.75 8.24996 15.75C8.54996 15.75 8.77496 15.6 8.92496 15.3L10.425 12.3C10.575 12 10.425 11.55 10.05 11.325Z" fill="black"/>
<path d="M15.075 15.3C15.225 15.6 15.45 15.75 15.75 15.75C15.825 15.75 15.975 15.75 16.05 15.675C16.425 15.525 16.575 15.075 16.35 14.7L14.85 11.7C14.7 11.325 14.25 11.175 13.875 11.4C13.5 11.55 13.35 12 13.575 12.375L15.075 15.3Z" fill="black"/>
<path d="M12.75 14.625V12.825C12.75 12.375 12.45 12.075 12 12.075C11.55 12.075 11.25 12.375 11.25 12.825V14.625C11.25 15.075 11.55 15.375 12 15.375C12.45 15.375 12.75 15.075 12.75 14.625Z" fill="black"/>
</svg>
