<svg width="26" height="26" viewBox="0 0 26 26" fill="none" xmlns="http://www.w3.org/2000/svg">
<path d="M13.0042 2.57227L14.452 4.02007C15.2199 4.78803 15.6513 5.82961 15.6513 6.91567C15.6513 8.00173 15.2199 9.04331 14.452 9.81127L13.0042 11.2591L11.5487 9.80361C10.7841 9.03495 10.3555 7.99444 10.3569 6.91025C10.3584 5.82607 10.7897 4.7867 11.5563 4.02007L13.0042 2.57227Z" stroke="#0E0E0E" stroke-width="2" stroke-miterlimit="10"/>
<path d="M19.1426 8.95917V11.0067C19.1398 12.0815 18.7146 13.1122 17.9586 13.8763C17.2026 14.6404 16.1765 15.0766 15.1017 15.0908H13.0542V13.0542C13.0542 11.9774 13.4781 10.944 14.2344 10.1775C14.9907 9.41113 16.0184 8.97341 17.0951 8.95917H19.1426Z" stroke="#0E0E0E" stroke-width="2" stroke-miterlimit="10"/>
<path d="M6.86826 8.95917H8.90492C9.98166 8.95907 11.0151 9.38307 11.7815 10.1394C12.548 10.8956 12.9857 11.9234 12.9999 13V15.0475H10.9524C9.86636 15.0475 8.82478 14.6161 8.05682 13.8481C7.28886 13.0801 6.85742 12.0386 6.85742 10.9525V8.95917H6.86826Z" stroke="#0E0E0E" stroke-width="2" stroke-miterlimit="10"/>
<path d="M19.1316 15.1017V17.1492C19.1316 17.6869 19.0257 18.2194 18.8199 18.7163C18.6141 19.2131 18.3124 19.6645 17.9322 20.0448C17.5519 20.425 17.1005 20.7267 16.6037 20.9325C16.1069 21.1382 15.5744 21.2442 15.0366 21.2442H12.9999V19.1967C12.9999 18.1125 13.4299 17.0725 14.1955 16.3049C14.9611 15.5372 15.9999 15.1045 17.0841 15.1017H19.1316Z" stroke="#0E0E0E" stroke-width="2" stroke-miterlimit="10"/>
<path d="M6.86826 15.1017H8.90492C9.98911 15.1017 11.0291 15.5316 11.7967 16.2972C12.5644 17.0629 12.9971 18.1017 12.9999 19.1858V21.2333H10.9524C9.86636 21.2333 8.82478 20.8019 8.05682 20.0339C7.28886 19.266 6.85742 18.2244 6.85742 17.1383V15.1017H6.86826Z" stroke="#0E0E0E" stroke-width="2" stroke-miterlimit="10"/>
<path d="M13 25.3283V11.0067" stroke="#0E0E0E" stroke-width="2" stroke-miterlimit="10"/>
</svg>
